{"title":"Demi Lovato - Cool For The Summer (2015.Pop)","uid":12162064,"size":105263428,"categoryP":"video","categoryS":"music_videos","magnet":"?xt=urn:btih:3e9913200f2fa6c12c9af08750ee2da20703302b&amp;dn=Demi+Lovato+-+Cool+For+The+Summer+%282015.Pop%29&amp;tr=udp%3A%2F%2Ftracker.openbittorrent.com%3A80&amp;tr=udp%3A%2F%2Fopen.demonii.com%3A1337&amp;tr=udp%3A%2F%2Ftracker.coppersurfer.tk%3A6969&amp;tr=udp%3A%2F%2Fexodus.desync.com%3A6969","seeders":19,"leechers":2,"uploader":"MeRaDil","files":1,"time":1437934269,"description":"DEMI LOVATO - COOL FOR THE SUMMER\n\n &lt;a href=&quot;\nhttp://gifyu.com/images/DemiLovato1.png&quot; rel=&quot;nofollow&quot; target=&quot;_NEW&quot;&gt;\nhttp://gifyu.com/images/DemiLovato1.png&lt;/a&gt;\n &lt;a href=&quot;\nhttp://gifyu.com/images/DemiLovato2.png&quot; rel=&quot;nofollow&quot; target=&quot;_NEW&quot;&gt;\nhttp://gifyu.com/images/DemiLovato2.png&lt;/a&gt;\n\n\nGeneral\nDemi Lovato - Cool For The Summer\nFormat                                   : MPEG-4\nFormat profile                           : Base Media\nCodec ID                                 : isom\nFile size                                : 100 MiB\nDuration                                 : 3mn 47s\nOverall bit rate                         : 3 695 Kbps\nMusicVid name                            : Cool For The Summer\nPerformer                                : Demi Lovato\nGenre                                    : Pop\nContentType                              : Music Video\nRecorded date                            : july 2015\nCover                                    : Yes\nRating                                   : ***\nMake                                     : MeRaDil\nArtist url                               : http://demilovato.com/\nRelease                                  : USA . july 23 . 2015\n\nVideo\nID                                       : 1\nFormat                                   : AVC\nFormat/Info                              : Advanced Video Codec\nFormat profile                           : &lt;a class=&quot;__cf_email__&quot; href=&quot;/cdn-cgi/l/email-protection&quot; data-cfemail=&quot;eea6878986aea2dac0de&quot;&gt;[email&amp;#160;protected]&lt;/a&gt;&lt;script data-cfhash='f9e31' type=&quot;text/javascript&quot;&gt;\n/* &lt;![CDATA[ */!function(){try{var t=&quot;currentScript&quot;in document?document.currentScript:function(){for(var t=document.getElementsByTagName(&quot;script&quot;),e=t.length;e--;)if(t[e].getAttribute(&quot;data-cfhash&quot;))return t[e]}();if(t&amp;&amp;t.previousSibling){var e,r,n,i,c=t.previousSibling,a=c.getAttribute(&quot;data-cfemail&quot;);if(a){for(e=&quot;&quot;,r=parseInt(a.substr(0,2),16),n=2;a.length-n;n+=2)i=parseInt(a.substr(n,2),16)^r,e+=String.fromCharCode(i);e=document.createTextNode(e),c.parentNode.replaceChild(e,c)}t.parentNode.removeChild(t);}}catch(u){}}()/* ]]&gt; */&lt;/script&gt;\nFormat settings, CABAC                   : Yes\nFormat settings, ReFrames                : 2 frames\nCodec ID                                 : avc1\nCodec ID/Info                            : Advanced Video Coding\nDuration                                 : 3mn 47s\nBit rate                                 : 3 418 Kbps\nWidth                                    : 1 920 pixels\nHeight                                   : 1 080 pixels\nDisplay aspect ratio                     : 16:9\nFrame rate mode                          : Variable\nFrame rate                               : 23.976 fps\nMinimum frame rate                       : 23.974 fps\nMaximum frame rate                       : 23.981 fps\nColor space                              : YUV\nChroma subsampling                       : 4:2:0\nBit depth                                : 8 bits\nScan type                                : Progressive\nBits/(Pixel*Frame)                       : 0.069\nStream size                              : 92.8 MiB (92%)\n\nAudio\nID                                       : 2\nFormat                                   : AAC\nFormat/Info                              : Advanced Audio Codec\nFormat profile                           : LC\nCodec ID                                 : 40\nDuration                                 : 3mn 47s\nBit rate mode                            : Constant\nBit rate                                 : 256 Kbps\nChannel(s)                               : 2 channels\nChannel positions                        : Front: L R\nSampling rate                            : 44.1 KHz\nCompression mode                         : Lossy\nStream size                              : 6.95 MiB (7%)\n &lt;a href=&quot;\nhttps://thepiratebay.se/user/MeRaDil&quot; rel=&quot;nofollow&quot; target=&quot;_NEW&quot;&gt;\nhttps://thepiratebay.se/user/MeRaDil&lt;/a&gt;\n\nDemi Lovato * Pop * Promo","torrent":{"xt":"urn:btih:3e9913200f2fa6c12c9af08750ee2da20703302b","amp;dn":"Demi+Lovato+-+Cool+For+The+Summer+%282015.Pop%29","amp;tr":["udp%3A%2F%2Ftracker.openbittorrent.com%3A80","udp%3A%2F%2Fopen.demonii.com%3A1337","udp%3A%2F%2Ftracker.coppersurfer.tk%3A6969","udp%3A%2F%2Fexodus.desync.com%3A6969"],"infoHash":"3e9913200f2fa6c12c9af08750ee2da20703302b","infoHashBuffer":{"type":"Buffer","data":[62,153,19,32,15,47,166,193,44,154,240,135,80,238,45,162,7,3,48,43]},"announce":[],"urlList":[]}}